<svg width="120" height="107" viewBox="0 0 120 107" fill="none" xmlns="http://www.w3.org/2000/svg">
<mask id="path-1-inside-1_27_132" fill="white">
<path d="M118.875 1.47308C118.271 0.88857 117.504 0.501609 116.675 0.363625C115.846 0.225641 114.995 0.343166 114.234 0.700583L89.7412 11.5625C89.6006 11.6262 89.4656 11.6993 89.3249 11.7631C81.0785 5.88039 71.2532 2.61428 61.1261 2.38924C50.999 2.1642 41.0383 4.99064 32.5387 10.5012L24.4237 2.38433C23.544 1.49687 22.3489 0.993371 21.0993 0.983708C20.477 0.959868 19.8566 1.06876 19.2796 1.30313C18.7025 1.53751 18.1819 1.89201 17.7525 2.34308C16.8754 3.23444 16.3874 4.43713 16.3955 5.68762C16.4036 6.9381 16.9071 8.13439 17.7956 9.01433L32.0287 23.2475L30.7031 24.5731L16.4681 10.34C15.5882 9.45159 14.3919 8.94853 13.1415 8.94115C11.8912 8.93377 10.689 9.42267 9.79871 10.3006C9.35922 10.7381 9.01223 11.2595 8.77837 11.8338C8.54452 12.4082 8.42858 13.0237 8.43746 13.6437C8.44782 14.8935 8.95198 16.0885 9.83996 16.9681L24.0731 31.2012L22.7475 32.5287L8.51433 18.2937C7.63389 17.4057 6.43733 16.9029 5.18685 16.8955C3.93636 16.8881 2.73395 17.3768 1.84309 18.2543C0.965557 19.1444 0.476258 20.3457 0.482232 21.5956C0.488205 22.8455 0.988965 24.0421 1.87496 24.9237L12.4875 35.5268C9.3732 43.9908 8.57848 53.1335 10.1856 62.0079C11.7928 70.8823 15.7433 79.1657 21.6281 86L13.2412 94.3887C11.9357 95.6723 11.1465 97.3902 11.0231 99.2168C10.9538 100.075 11.0646 100.939 11.3483 101.752C11.6321 102.566 12.0825 103.311 12.6707 103.94C13.259 104.569 13.9722 105.069 14.7646 105.406C15.557 105.744 16.4112 105.913 17.2725 105.901C17.4131 105.901 17.5537 105.901 17.6943 105.888C19.5208 105.764 21.2384 104.975 22.5225 103.67L31.4306 94.7618C39.4745 100.285 48.9472 103.358 58.7017 103.608C68.4562 103.859 78.074 101.276 86.3906 96.1718L95.1018 104.883C96.3386 106.128 98.0158 106.836 99.7706 106.854H99.8418C100.698 106.857 101.546 106.69 102.338 106.364C103.129 106.037 103.848 105.557 104.452 104.951C105.68 103.7 106.362 102.015 106.349 100.263C106.336 98.5108 105.629 96.8354 104.383 95.6037L96.6656 87.8862C104.664 79.4993 109.536 68.6168 110.463 57.0642C111.39 45.5116 108.317 33.9916 101.758 24.4362L118.661 7.53308C119.49 6.75622 119.978 5.68271 120.018 4.54718C120.058 3.41165 119.647 2.30644 118.875 1.47308ZM59.9999 6.12496C69.0688 6.11006 77.9439 8.7484 85.5318 13.715C82.5719 15.4143 79.8056 17.4305 77.2818 19.7281C71.8416 16.8946 65.7878 15.4431 59.6543 15.5017C53.5207 15.5602 47.4957 17.1269 42.1106 20.0637L35.25 13.2181C42.6702 8.57641 51.2475 6.11821 59.9999 6.12496ZM4.49996 20.9056C4.58143 20.8132 4.68338 20.7412 4.79766 20.6953C4.91193 20.6494 5.03537 20.6309 5.15808 20.6412C5.42485 20.6464 5.67909 20.7554 5.86683 20.945L21.4293 36.5075C21.7876 36.8462 22.2619 37.035 22.755 37.035C23.248 37.035 23.7223 36.8462 24.0806 36.5075L28.0575 32.5287C28.409 32.1771 28.6064 31.7003 28.6064 31.2031C28.6064 30.7059 28.409 30.2291 28.0575 29.8775L12.495 14.315C12.3026 14.1288 12.192 13.8739 12.1875 13.6062C12.1861 13.4852 12.2085 13.3652 12.2536 13.2529C12.2986 13.1406 12.3654 13.0383 12.45 12.9518C12.6276 12.7842 12.862 12.6898 13.1062 12.6875C13.3736 12.6924 13.6285 12.8013 13.8168 12.9912L29.3793 28.5537C29.5535 28.728 29.7603 28.8663 29.9879 28.9607C30.2155 29.0551 30.4595 29.1036 30.7059 29.1036C30.9523 29.1036 31.1963 29.0551 31.4239 28.9607C31.6515 28.8663 31.8583 28.728 32.0325 28.5537L36 24.5731C36.3515 24.2215 36.5489 23.7446 36.5489 23.2475C36.5489 22.7503 36.3515 22.2734 36 21.9218L20.4375 6.35933C20.2512 6.18289 20.1423 5.93992 20.1346 5.68346C20.1268 5.42701 20.2209 5.17792 20.3962 4.99058C20.5735 4.82265 20.8082 4.72875 21.0525 4.72808C21.32 4.7322 21.5752 4.84129 21.7631 5.03183L50.8593 34.1243C52.3077 35.5579 53.1318 37.5053 53.1524 39.5431C53.1684 40.5296 52.9858 41.5093 52.6153 42.4238C52.2449 43.3383 51.6943 44.1689 50.9962 44.8662C50.6447 45.2178 50.4472 45.6947 50.4472 46.1918C50.4472 46.689 50.6447 47.1658 50.9962 47.5175L53.4337 49.9662L56.0849 47.315L54.8531 46.0831C56.2163 44.1612 56.9339 41.856 56.9024 39.5C56.8736 36.4807 55.6556 33.5945 53.5124 31.4675L44.8687 22.8237C49.4531 20.5269 54.5 19.3036 59.6272 19.2465C64.7544 19.1893 69.8274 20.2997 74.4618 22.4937C68.6323 28.6826 64.6391 36.371 62.9287 44.6993L33.6262 74C28.8587 68.0381 26.2579 60.6336 26.25 53C26.2523 51.8232 26.3149 50.6472 26.4375 49.4768L30.9731 54.0125C32.0414 55.0852 33.3109 55.9366 34.709 56.5177C36.107 57.0988 37.606 57.3982 39.1199 57.3987C41.4325 57.4046 43.6899 56.6932 45.5812 55.3625L46.6724 56.4537L49.3237 53.8025L47.0193 51.5C46.6677 51.1485 46.1909 50.951 45.6937 50.951C45.1965 50.951 44.7197 51.1485 44.3681 51.5C42.9236 52.9031 40.982 53.6767 38.9683 53.6514C36.9547 53.6261 35.0331 52.804 33.6243 51.365L4.53746 22.2743C4.35216 22.0971 4.24427 21.854 4.23725 21.5977C4.23023 21.3414 4.32464 21.0927 4.49996 20.9056ZM13.125 53C13.134 48.0734 13.9219 43.1792 15.4593 38.4987L23.1337 46.1731C22.1351 51.5197 22.3184 57.0201 23.6707 62.2884C25.023 67.5567 27.5115 72.4653 30.9618 76.67L24.3131 83.3168C17.0937 74.8652 13.1265 64.1152 13.125 53ZM59.9999 99.875C50.795 99.8867 41.7937 97.1662 34.1362 92.0581L40.9256 85.2668C46.3132 88.4633 52.4176 90.2548 58.6782 90.4766C64.9387 90.6984 71.1546 89.3434 76.7549 86.5362L83.6624 93.4437C76.4888 97.6575 68.3196 99.8778 59.9999 99.875ZM101.797 102.299C101.527 102.561 101.209 102.766 100.859 102.904C100.51 103.042 100.137 103.11 99.7613 103.104C99.3857 103.097 99.015 103.017 98.6704 102.867C98.3259 102.718 98.0141 102.502 97.7531 102.232L63.4106 67.8893L60.7593 70.5406L73.9462 83.7275C69.156 85.9061 63.922 86.9323 58.6637 86.7235C53.4055 86.5148 48.2693 85.0771 43.6668 82.5256L89.5331 36.6612C92.9771 42.8777 94.3654 50.0247 93.4991 57.0785C92.6328 64.1322 89.5564 70.7309 84.7106 75.9293L70.0856 61.3043L67.4343 63.9556L101.732 98.255C102.276 98.7832 102.588 99.5055 102.6 100.264C102.613 101.022 102.324 101.754 101.797 102.299ZM106.875 53C106.909 65.002 102.301 76.5524 94.0143 85.235L87.3618 78.5806C92.912 72.6768 96.3919 65.1283 97.2767 57.0737C98.1615 49.0191 96.4031 40.8953 92.2668 33.9275L99.0581 27.1362C104.167 34.7932 106.888 43.7949 106.875 53ZM116.01 4.88183L19.875 101.019C19.3426 101.651 18.5833 102.05 17.7602 102.129C16.9371 102.209 16.1158 101.962 15.4725 101.442C15.2193 101.179 15.0256 100.864 14.9043 100.519C14.7831 100.174 14.737 99.8078 14.7693 99.4437C14.8388 98.5321 15.2389 97.6773 15.8943 97.04L65.9868 46.9475C66.2552 46.6787 66.4357 46.3348 66.5043 45.9612C67.8428 39.1921 70.7903 32.8443 75.098 27.4538C79.4057 22.0634 84.9471 17.7885 91.2543 14.99L115.744 4.12996C115.815 4.08863 115.896 4.06687 115.978 4.06687C116.06 4.06687 116.141 4.08863 116.212 4.12996C116.323 4.23308 116.297 4.59308 116.01 4.88183Z"/>
</mask>
<path d="M118.875 1.47308C118.271 0.88857 117.504 0.501609 116.675 0.363625C115.846 0.225641 114.995 0.343166 114.234 0.700583L89.7412 11.5625C89.6006 11.6262 89.4656 11.6993 89.3249 11.7631C81.0785 5.88039 71.2532 2.61428 61.1261 2.38924C50.999 2.1642 41.0383 4.99064 32.5387 10.5012L24.4237 2.38433C23.544 1.49687 22.3489 0.993371 21.0993 0.983708C20.477 0.959868 19.8566 1.06876 19.2796 1.30313C18.7025 1.53751 18.1819 1.89201 17.7525 2.34308C16.8754 3.23444 16.3874 4.43713 16.3955 5.68762C16.4036 6.9381 16.9071 8.13439 17.7956 9.01433L32.0287 23.2475L30.7031 24.5731L16.4681 10.34C15.5882 9.45159 14.3919 8.94853 13.1415 8.94115C11.8912 8.93377 10.689 9.42267 9.79871 10.3006C9.35922 10.7381 9.01223 11.2595 8.77837 11.8338C8.54452 12.4082 8.42858 13.0237 8.43746 13.6437C8.44782 14.8935 8.95198 16.0885 9.83996 16.9681L24.0731 31.2012L22.7475 32.5287L8.51433 18.2937C7.63389 17.4057 6.43733 16.9029 5.18685 16.8955C3.93636 16.8881 2.73395 17.3768 1.84309 18.2543C0.965557 19.1444 0.476258 20.3457 0.482232 21.5956C0.488205 22.8455 0.988965 24.0421 1.87496 24.9237L12.4875 35.5268C9.3732 43.9908 8.57848 53.1335 10.1856 62.0079C11.7928 70.8823 15.7433 79.1657 21.6281 86L13.2412 94.3887C11.9357 95.6723 11.1465 97.3902 11.0231 99.2168C10.9538 100.075 11.0646 100.939 11.3483 101.752C11.6321 102.566 12.0825 103.311 12.6707 103.94C13.259 104.569 13.9722 105.069 14.7646 105.406C15.557 105.744 16.4112 105.913 17.2725 105.901C17.4131 105.901 17.5537 105.901 17.6943 105.888C19.5208 105.764 21.2384 104.975 22.5225 103.67L31.4306 94.7618C39.4745 100.285 48.9472 103.358 58.7017 103.608C68.4562 103.859 78.074 101.276 86.3906 96.1718L95.1018 104.883C96.3386 106.128 98.0158 106.836 99.7706 106.854H99.8418C100.698 106.857 101.546 106.69 102.338 106.364C103.129 106.037 103.848 105.557 104.452 104.951C105.68 103.7 106.362 102.015 106.349 100.263C106.336 98.5108 105.629 96.8354 104.383 95.6037L96.6656 87.8862C104.664 79.4993 109.536 68.6168 110.463 57.0642C111.39 45.5116 108.317 33.9916 101.758 24.4362L118.661 7.53308C119.49 6.75622 119.978 5.68271 120.018 4.54718C120.058 3.41165 119.647 2.30644 118.875 1.47308ZM59.9999 6.12496C69.0688 6.11006 77.9439 8.7484 85.5318 13.715C82.5719 15.4143 79.8056 17.4305 77.2818 19.7281C71.8416 16.8946 65.7878 15.4431 59.6543 15.5017C53.5207 15.5602 47.4957 17.1269 42.1106 20.0637L35.25 13.2181C42.6702 8.57641 51.2475 6.11821 59.9999 6.12496ZM4.49996 20.9056C4.58143 20.8132 4.68338 20.7412 4.79766 20.6953C4.91193 20.6494 5.03537 20.6309 5.15808 20.6412C5.42485 20.6464 5.67909 20.7554 5.86683 20.945L21.4293 36.5075C21.7876 36.8462 22.2619 37.035 22.755 37.035C23.248 37.035 23.7223 36.8462 24.0806 36.5075L28.0575 32.5287C28.409 32.1771 28.6064 31.7003 28.6064 31.2031C28.6064 30.7059 28.409 30.2291 28.0575 29.8775L12.495 14.315C12.3026 14.1288 12.192 13.8739 12.1875 13.6062C12.1861 13.4852 12.2085 13.3652 12.2536 13.2529C12.2986 13.1406 12.3654 13.0383 12.45 12.9518C12.6276 12.7842 12.862 12.6898 13.1062 12.6875C13.3736 12.6924 13.6285 12.8013 13.8168 12.9912L29.3793 28.5537C29.5535 28.728 29.7603 28.8663 29.9879 28.9607C30.2155 29.0551 30.4595 29.1036 30.7059 29.1036C30.9523 29.1036 31.1963 29.0551 31.4239 28.9607C31.6515 28.8663 31.8583 28.728 32.0325 28.5537L36 24.5731C36.3515 24.2215 36.5489 23.7446 36.5489 23.2475C36.5489 22.7503 36.3515 22.2734 36 21.9218L20.4375 6.35933C20.2512 6.18289 20.1423 5.93992 20.1346 5.68346C20.1268 5.42701 20.2209 5.17792 20.3962 4.99058C20.5735 4.82265 20.8082 4.72875 21.0525 4.72808C21.32 4.7322 21.5752 4.84129 21.7631 5.03183L50.8593 34.1243C52.3077 35.5579 53.1318 37.5053 53.1524 39.5431C53.1684 40.5296 52.9858 41.5093 52.6153 42.4238C52.2449 43.3383 51.6943 44.1689 50.9962 44.8662C50.6447 45.2178 50.4472 45.6947 50.4472 46.1918C50.4472 46.689 50.6447 47.1658 50.9962 47.5175L53.4337 49.9662L56.0849 47.315L54.8531 46.0831C56.2163 44.1612 56.9339 41.856 56.9024 39.5C56.8736 36.4807 55.6556 33.5945 53.5124 31.4675L44.8687 22.8237C49.4531 20.5269 54.5 19.3036 59.6272 19.2465C64.7544 19.1893 69.8274 20.2997 74.4618 22.4937C68.6323 28.6826 64.6391 36.371 62.9287 44.6993L33.6262 74C28.8587 68.0381 26.2579 60.6336 26.25 53C26.2523 51.8232 26.3149 50.6472 26.4375 49.4768L30.9731 54.0125C32.0414 55.0852 33.3109 55.9366 34.709 56.5177C36.107 57.0988 37.606 57.3982 39.1199 57.3987C41.4325 57.4046 43.6899 56.6932 45.5812 55.3625L46.6724 56.4537L49.3237 53.8025L47.0193 51.5C46.6677 51.1485 46.1909 50.951 45.6937 50.951C45.1965 50.951 44.7197 51.1485 44.3681 51.5C42.9236 52.9031 40.982 53.6767 38.9683 53.6514C36.9547 53.6261 35.0331 52.804 33.6243 51.365L4.53746 22.2743C4.35216 22.0971 4.24427 21.854 4.23725 21.5977C4.23023 21.3414 4.32464 21.0927 4.49996 20.9056ZM13.125 53C13.134 48.0734 13.9219 43.1792 15.4593 38.4987L23.1337 46.1731C22.1351 51.5197 22.3184 57.0201 23.6707 62.2884C25.023 67.5567 27.5115 72.4653 30.9618 76.67L24.3131 83.3168C17.0937 74.8652 13.1265 64.1152 13.125 53ZM59.9999 99.875C50.795 99.8867 41.7937 97.1662 34.1362 92.0581L40.9256 85.2668C46.3132 88.4633 52.4176 90.2548 58.6782 90.4766C64.9387 90.6984 71.1546 89.3434 76.7549 86.5362L83.6624 93.4437C76.4888 97.6575 68.3196 99.8778 59.9999 99.875ZM101.797 102.299C101.527 102.561 101.209 102.766 100.859 102.904C100.51 103.042 100.137 103.11 99.7613 103.104C99.3857 103.097 99.015 103.017 98.6704 102.867C98.3259 102.718 98.0141 102.502 97.7531 102.232L63.4106 67.8893L60.7593 70.5406L73.9462 83.7275C69.156 85.9061 63.922 86.9323 58.6637 86.7235C53.4055 86.5148 48.2693 85.0771 43.6668 82.5256L89.5331 36.6612C92.9771 42.8777 94.3654 50.0247 93.4991 57.0785C92.6328 64.1322 89.5564 70.7309 84.7106 75.9293L70.0856 61.3043L67.4343 63.9556L101.732 98.255C102.276 98.7832 102.588 99.5055 102.6 100.264C102.613 101.022 102.324 101.754 101.797 102.299ZM106.875 53C106.909 65.002 102.301 76.5524 94.0143 85.235L87.3618 78.5806C92.912 72.6768 96.3919 65.1283 97.2767 57.0737C98.1615 49.0191 96.4031 40.8953 92.2668 33.9275L99.0581 27.1362C104.167 34.7932 106.888 43.7949 106.875 53ZM116.01 4.88183L19.875 101.019C19.3426 101.651 18.5833 102.05 17.7602 102.129C16.9371 102.209 16.1158 101.962 15.4725 101.442C15.2193 101.179 15.0256 100.864 14.9043 100.519C14.7831 100.174 14.737 99.8078 14.7693 99.4437C14.8388 98.5321 15.2389 97.6773 15.8943 97.04L65.9868 46.9475C66.2552 46.6787 66.4357 46.3348 66.5043 45.9612C67.8428 39.1921 70.7903 32.8443 75.098 27.4538C79.4057 22.0634 84.9471 17.7885 91.2543 14.99L115.744 4.12996C115.815 4.08863 115.896 4.06687 115.978 4.06687C116.06 4.06687 116.141 4.08863 116.212 4.12996C116.323 4.23308 116.297 4.59308 116.01 4.88183Z" fill="#94866B" stroke="#262626" stroke-width="2" mask="url(#path-1-inside-1_27_132)"/>
</svg>
