<svg width="120" height="120" viewBox="0 0 120 120" fill="none" xmlns="http://www.w3.org/2000/svg">
<g clip-path="url(#clip0_27_133)">
<path d="M26.2547 86.4505L27.2741 86.79L29.5651 87.5531C29.5652 87.5531 29.5653 87.5531 29.5653 87.5531C29.9118 87.6683 30.29 87.6412 30.6165 87.4777C30.9431 87.3141 31.1913 87.0275 31.3066 86.6809C31.4219 86.3343 31.3948 85.9562 31.2312 85.6296C31.0677 85.303 30.7811 85.0547 30.4345 84.9394L30.4341 84.9393L28.0903 84.1574L27.0903 83.8238L27.9814 83.2605C29.8553 82.0759 31.9691 81.3228 34.1698 81.0556C36.3706 80.7883 38.6032 81.0137 40.7061 81.7153C42.8091 82.4169 44.7298 83.5772 46.3292 85.1123C47.9286 86.6473 49.1668 88.5188 49.9541 90.5912L50.3284 91.5763L49.3286 91.2431L36.0595 86.8201L26.2547 86.4505ZM26.2547 86.4505L26.6514 87.449M26.2547 86.4505L26.6514 87.449M26.6514 87.449C28.0244 90.9045 30.634 93.7207 33.9661 95.3536V95.3593L34.2558 95.4936C36.4904 96.5295 38.9462 96.9979 41.4052 96.8571C43.8643 96.7163 46.2505 95.9708 48.3524 94.6867L49.2704 94.1258L48.2498 93.7856L35.1904 89.4338L35.1901 89.4337M26.6514 87.449L35.1901 89.4337M35.1901 89.4337C34.8435 89.3184 34.5569 89.0701 34.3934 88.7436C34.2298 88.417 34.2027 88.0388 34.318 87.6922C34.4333 87.3456 34.6815 87.059 35.0081 86.8954C35.3346 86.7319 35.7127 86.7048 36.0592 86.82L35.1901 89.4337ZM72.4558 78.6742L72.4578 78.6737C75.4036 77.9661 78.482 78.0294 81.3961 78.8575C84.3103 79.6856 86.962 81.2506 89.0954 83.4015L89.0968 83.4028C89.2494 83.5555 89.3639 83.742 89.431 83.9472C89.4981 84.1524 89.516 84.3705 89.4831 84.5839L89.9773 84.66L89.4831 84.584C89.038 87.477 87.8839 90.215 86.1238 92.5539C84.3637 94.8927 82.0523 96.7597 79.3956 97.9885C76.7388 99.2173 73.8194 99.7697 70.8974 99.5964C67.9754 99.4231 65.1416 98.5296 62.6488 96.9954L62.3867 97.4212L62.6487 96.9954L62.1369 96.6804L61.3748 96.2115V97.1062V114.375C61.3748 115.734 60.8349 117.038 59.8737 117.999C58.9126 118.96 57.609 119.5 56.2498 119.5C54.8906 119.5 53.587 118.96 52.6259 117.999C51.6648 117.038 51.1248 115.734 51.1248 114.375V97.1062V96.1918L50.355 96.6853L49.8469 97.011C47.3553 98.5457 44.5227 99.4399 41.6016 99.6141C38.6791 99.7883 35.7588 99.2362 33.1015 98.0072C30.4442 96.7781 28.1326 94.9103 26.3728 92.5704C24.6131 90.2305 23.46 87.4914 23.0165 84.5974L23.0165 84.597C22.9836 84.3837 23.0015 84.1655 23.0686 83.9603C23.1358 83.7551 23.2503 83.5686 23.4029 83.4159L23.4032 83.4156C25.2069 81.6072 27.3802 80.21 29.7743 79.3197C32.1683 78.4295 34.7264 78.0672 37.2735 78.2577C39.8206 78.4482 42.2964 79.187 44.5313 80.4235C46.7663 81.6599 48.7076 83.3649 50.2222 85.4215L51.1248 86.6471V85.125V73.125C51.1248 72.7603 51.2697 72.4106 51.5275 72.1527C51.7854 71.8949 52.1351 71.75 52.4998 71.75C52.8645 71.75 53.2142 71.8949 53.4721 72.1527C53.73 72.4106 53.8748 72.7603 53.8748 73.125V114.375C53.8748 115.005 54.125 115.609 54.5704 116.054C55.0158 116.5 55.6199 116.75 56.2498 116.75C56.8797 116.75 57.4838 116.5 57.9292 116.054C58.3746 115.609 58.6248 115.005 58.6248 114.375V71.25C58.6248 70.8853 58.7697 70.5356 59.0275 70.2777C59.2854 70.0199 59.6351 69.875 59.9998 69.875C60.3645 69.875 60.7142 70.0199 60.9721 70.2777C61.2299 70.5356 61.3748 70.8853 61.3748 71.25V85.125V86.6551L62.2783 85.4202C64.7585 82.0305 68.3678 79.6381 72.4558 78.6742ZM71.0938 96.8534C73.295 96.98 75.4936 96.6185 77.5336 95.7987V95.8227L78.2437 95.4937C81.7231 93.8819 84.4493 90.9938 85.858 87.4274L86.2553 86.4214L85.2316 86.7705L82.9441 87.5505L82.9422 87.5511C82.8001 87.6002 82.6508 87.6252 82.5004 87.625C82.175 87.6246 81.8603 87.5089 81.6123 87.2983C81.3642 87.0878 81.1988 86.7961 81.1456 86.4751C81.0923 86.1542 81.1546 85.8247 81.3213 85.5453C81.4881 85.2659 81.7485 85.0547 82.0563 84.9492L84.3957 84.1507L85.3862 83.8126L84.5008 83.2545C82.6271 82.0734 80.5144 81.3232 78.3154 81.0581C76.1164 80.793 73.8859 81.0196 71.7852 81.7216C69.6844 82.4236 67.7658 83.5834 66.1679 85.1172C64.5701 86.6511 63.3328 88.5207 62.5456 90.591L62.1707 91.577L63.1712 91.243L76.4401 86.8144C76.4402 86.8144 76.4402 86.8144 76.4403 86.8144C76.7868 86.6992 77.165 86.7263 77.4915 86.8898C77.8181 87.0534 78.0663 87.34 78.1816 87.6866C78.2969 88.0331 78.2698 88.4113 78.1062 88.7379C77.9427 89.0645 77.6561 89.3128 77.3095 89.4281L77.3092 89.4281L64.2499 93.78L63.2296 94.12L64.1471 94.681C66.2486 95.9657 68.6348 96.7119 71.0938 96.8534Z" fill="#94866B" stroke="#262626"/>
<path d="M56.3964 63.0843L56.8198 63.5477C59.5168 66.4996 62.7974 68.8593 66.4539 70.4774C70.1103 72.0954 74.0629 72.9366 78.0614 72.9475C79.1074 72.9477 80.1526 72.8899 81.1923 72.7743L82.6565 72.6112L82.6571 72.6111C82.9018 72.5841 83.1348 72.4919 83.3318 72.3441C83.5287 72.1963 83.6823 71.9983 83.7766 71.7709L84.2385 71.9623L83.7766 71.7709C83.8709 71.5434 83.9024 71.2948 83.8677 71.051C83.8331 70.8075 83.7339 70.5778 83.5803 70.3857C79.4045 65.1909 73.5341 61.6308 66.9974 60.3291L65.7027 60.0713L66.8433 59.4067C70.4952 57.279 73.4903 54.1862 75.4997 50.4679C77.5091 46.7495 78.4551 42.5494 78.2338 38.3287L77.0132 15.4147L77.0132 15.414C77.0021 15.1999 76.9411 14.9915 76.8351 14.8052C76.7291 14.6189 76.5811 14.4599 76.4027 14.3411L76.6801 13.925L76.4027 14.3411C76.2244 14.2222 76.0207 14.1466 75.808 14.1204C75.5953 14.0942 75.3794 14.1181 75.1776 14.1902L70.3794 15.904L69.7471 16.1298L69.7119 15.4593L69.5132 11.6643L69.5132 11.664C69.5021 11.4499 69.4411 11.2415 69.3351 11.0552C69.2291 10.8689 69.0811 10.7099 68.9027 10.5911C68.7244 10.4722 68.5207 10.3966 68.308 10.3704C68.0953 10.3442 67.8794 10.3681 67.6776 10.4402M56.3964 63.0843L67.6776 10.4402M56.3964 63.0843L56.0394 63.6006C54.0748 66.4419 51.4514 68.7653 48.3935 70.3721C45.3357 71.9789 41.9343 72.8213 38.48 72.8275C37.4594 72.827 36.44 72.7548 35.4296 72.6113C35.2235 72.5818 35.0268 72.5059 34.8544 72.3894C34.6819 72.2728 34.5381 72.1186 34.4339 71.9384C34.3297 71.7582 34.2678 71.5567 34.2528 71.3491C34.2379 71.1419 34.2701 70.9341 34.347 70.7411C35.4389 68.044 37.1869 65.6622 39.4324 63.8117C41.6782 61.961 44.3505 60.7003 47.2069 60.1439L48.4127 59.909L47.3856 59.2351C44.6009 57.408 42.3865 54.8342 40.9956 51.808C39.6048 48.7818 39.0935 45.4253 39.5203 42.1222L39.5295 42.0505L39.5181 41.9791C39.5093 41.9244 39.4948 41.8802 39.4846 41.8522C39.4826 41.8469 39.4807 41.8418 39.4789 41.8372C39.364 40.6738 39.3363 39.5035 39.3962 38.336C39.3962 38.3359 39.3962 38.3357 39.3962 38.3356L40.6037 15.4144L40.6037 15.414C40.6148 15.1999 40.6758 14.9914 40.7818 14.8052C40.8878 14.6189 41.0358 14.4599 41.2142 14.3411C41.3925 14.2222 41.5962 14.1466 41.8089 14.1204C42.0216 14.0942 42.2375 14.1181 42.4393 14.1902L42.4394 14.1902L51.5654 17.4487C51.8796 17.5887 52.1302 17.8415 52.2673 18.1574C52.4064 18.478 52.4182 18.8395 52.3004 19.1684C52.1826 19.4974 51.944 19.7691 51.633 19.9285C51.3264 20.0856 50.9721 20.1218 50.6403 20.0303L43.8857 17.6173L43.2535 17.3914L43.2182 18.0618L42.4682 32.3118L42.3694 34.1886L43.3878 32.609C47.209 26.6818 52.8728 22.1751 59.507 19.7831C59.5072 19.783 59.5075 19.7829 59.5077 19.7828L66.693 17.2203L67.0438 17.0952L67.0243 16.7232L66.8987 14.3232L66.8636 13.6527L66.2312 13.8785L56.712 17.2778M56.3964 63.0843L56.712 17.2778M67.6776 10.4402L55.7882 14.6871L55.788 14.6872C55.4445 14.8097 55.1637 15.0637 55.0074 15.3933C54.8511 15.7228 54.8322 16.101 54.9547 16.4445C55.0772 16.788 55.3312 17.0688 55.6608 17.2251C55.9904 17.3814 56.3685 17.4003 56.712 17.2778M67.6776 10.4402L56.712 17.2778M60.7472 62.4165L59.3506 62.335L60.3792 63.2832C65.312 67.8304 71.8044 70.3066 78.5124 70.1993L79.7585 70.1794L78.8441 69.3325C74.4864 65.2964 68.8633 62.8971 62.9341 62.544L62.9335 62.544L60.7472 62.4165ZM43.3607 50.3661L43.3644 50.3653C44.9213 53.9585 47.8169 56.804 51.4371 58.2979C55.0608 59.7932 59.1249 59.8164 62.7655 58.3624L62.7656 58.3624C66.6939 56.7917 70.0317 54.0303 72.3104 50.4658C74.5891 46.9013 75.6945 42.7127 75.4712 38.488L74.3987 18.0806L74.3635 17.4101L73.7312 17.636L60.4299 22.3872L60.4293 22.3875C56.6307 23.75 53.1531 25.8794 50.2126 28.6433C47.2723 31.4071 44.932 34.7463 43.3372 38.4531C42.5229 40.3339 42.1048 42.3622 42.1088 44.4117C42.1128 46.4614 42.5389 48.4883 43.3607 50.3661ZM52.5325 62.4166L50.0731 62.5708V62.5542L49.5387 62.5912C47.249 62.7494 45.0282 63.4411 43.0536 64.6109C41.079 65.7807 39.4054 67.3962 38.1666 69.3282L37.6694 70.1037L38.5905 70.0981C41.3421 70.0814 44.056 69.4573 46.5384 68.2704C49.0208 67.0835 51.2105 65.363 52.951 63.2319L53.6754 62.3449L52.5325 62.4166Z" fill="#94866B" stroke="#262626"/>
<path d="M96.0951 16.5272L96.095 16.5272C95.7846 16.6891 95.4241 16.7264 95.0871 16.6316L94.9518 17.1129L95.0871 16.6316C94.7502 16.5368 94.4621 16.3171 94.2815 16.0173C94.2815 16.0172 94.2815 16.0172 94.2814 16.0171L90.1091 9.08004C89.4998 7.92865 89.238 6.62499 89.3557 5.32748C89.4738 4.02566 89.9688 2.78648 90.7801 1.76154L90.7909 1.7479L90.8007 1.73354C91.3551 0.923266 92.1426 0.300647 93.0589 -0.0517408C93.972 -0.402859 94.9699 -0.469161 95.9212 -0.242055C97.1702 0.118552 98.2538 0.905094 98.9836 1.98124L99.2202 2.33003L99.604 2.15594C100.756 1.63319 102.056 1.53208 103.275 1.87008C104.228 2.18021 105.062 2.77575 105.665 3.57609C106.27 4.3791 106.612 5.34918 106.645 6.35397L106.646 6.36999L106.647 6.38595C106.773 7.6714 106.517 8.96527 105.911 10.1062C105.307 11.2459 104.381 12.1826 103.248 12.7999L96.0951 16.5272ZM94.8078 2.36499L94.7778 2.36474L94.7481 2.36807C94.3865 2.40853 94.0381 2.52703 93.7269 2.71539C93.4218 2.90002 93.1596 3.14745 92.9576 3.44115C92.4949 4.02164 92.2024 4.71929 92.1127 5.45646C92.0222 6.20046 92.142 6.95492 92.4586 7.63427L92.4696 7.65798L92.4831 7.68041L95.7287 13.0879L95.9709 13.4913L96.3882 13.2741L102.002 10.3529L102.036 10.3359L102.056 10.3261L102.075 10.3145C102.701 9.92881 103.205 9.3733 103.529 8.71247C103.851 8.05396 103.98 7.31781 103.902 6.58896C103.884 6.35784 103.829 5.953 103.656 5.55838C103.48 5.15654 103.154 4.70853 102.569 4.52838L102.55 4.52262L102.531 4.51834C101.99 4.39699 101.426 4.42299 100.899 4.59364C100.378 4.76203 99.9113 5.06518 99.5458 5.47215C99.3744 5.63357 99.1643 5.74833 98.9356 5.80529C98.7013 5.86364 98.4558 5.85929 98.2238 5.79268C97.9918 5.72606 97.7813 5.59953 97.6137 5.42581C97.4503 5.25645 97.3332 5.04806 97.2734 4.82065C97.1829 4.28845 96.9544 3.78911 96.6107 3.3725C96.262 2.94991 95.8072 2.62765 95.2929 2.43875L95.2719 2.43102L95.2502 2.4252C95.1059 2.38645 94.9572 2.36621 94.8078 2.36499Z" fill="#94866B" stroke="#262626"/>
<path d="M116.867 62.0141L116.856 62.0006C116.039 60.9841 114.944 60.227 113.705 59.8217C112.469 59.4178 111.144 59.3806 109.888 59.7145L102.189 62.232L116.867 62.0141ZM116.867 62.0141L116.878 62.0268M116.867 62.0141L116.878 62.0268M116.878 62.0268C117.544 62.7474 117.975 63.6533 118.115 64.6245C118.253 65.5922 118.096 66.5792 117.663 67.4555C117.034 68.5926 116.027 69.4737 114.816 69.946L114.423 70.0992L114.508 70.5122C114.762 71.7527 114.57 73.0429 113.967 74.1561C113.538 74.8879 112.92 75.4913 112.178 75.9033C111.433 76.3167 110.592 76.5224 109.741 76.4989L109.741 76.4987L109.726 76.4987C109.424 76.4989 109.122 76.4769 108.823 76.4328L108.823 76.4327M116.878 62.0268L108.823 76.4327M108.823 76.4327L108.813 76.4315M108.823 76.4327L108.813 76.4315M108.813 76.4315C107.53 76.2678 106.324 75.7295 105.346 74.884C104.369 74.0395 103.662 72.9259 103.313 71.6822L101.286 63.882C101.286 63.8818 101.286 63.8817 101.286 63.8816C101.199 63.5434 101.244 63.1847 101.411 62.8783C101.579 62.5719 101.857 62.3409 102.189 62.2321L108.813 76.4315ZM115.189 66.2514L115.27 66.1266V66.0611C115.398 65.6752 115.422 65.2619 115.338 64.863C115.249 64.4414 115.045 64.0531 114.747 63.7421C114.284 63.165 113.671 62.7267 112.974 62.4758C112.27 62.2219 111.508 62.1698 110.776 62.3252L110.75 62.3307L110.725 62.339L104.725 64.2965L104.277 64.4425L104.396 64.8979L105.975 70.9578V71.0149L106.002 71.0925C106.236 71.7902 106.664 72.407 107.235 72.8713C107.805 73.3341 108.494 73.6264 109.222 73.7144C109.452 73.7477 109.859 73.7851 110.283 73.7045C110.714 73.6226 111.223 73.4044 111.529 72.8742L111.538 72.8577L111.546 72.8404C111.786 72.3401 111.887 71.7846 111.839 71.232C111.791 70.6867 111.6 70.164 111.284 69.7169C111.165 69.5138 111.1 69.2834 111.096 69.0479C111.091 68.8065 111.151 68.5682 111.267 68.3569C111.384 68.1457 111.554 67.9689 111.761 67.8443C111.963 67.7228 112.192 67.6552 112.428 67.6478C112.966 67.6772 113.503 67.5656 113.985 67.3239C114.474 67.0789 114.889 66.7089 115.189 66.2514Z" fill="#94866B" stroke="#262626"/>
<path d="M19.0037 5.04793L18.9893 5.04087C18.0865 4.5987 17.0693 4.44572 16.0763 4.60279C15.0868 4.75933 14.1693 5.21622 13.4481 5.91145C12.5772 6.83032 12.0566 8.02608 11.9776 9.28989L11.9513 9.71081L11.532 9.75585C10.239 9.89472 9.03581 10.4825 8.13161 11.4168C7.48512 12.1503 7.07589 13.0625 6.95794 14.0333C6.83957 15.0076 7.02019 15.9948 7.47584 16.8641L7.4836 16.8789L7.49035 16.8942C8.00498 18.0592 8.83894 19.0547 9.89574 19.7655C10.9505 20.475 12.1843 20.8719 13.4549 20.9106H13.6347L21.7234 20.4819C21.7234 20.4819 21.7234 20.4819 21.7234 20.4819C22.0729 20.4634 22.4022 20.3122 22.6442 20.0593C22.886 19.8064 23.0224 19.4709 23.0255 19.121C23.0255 19.1209 23.0255 19.1208 23.0255 19.1207M19.0037 5.04793L23.5255 19.125L23.0255 19.1207M19.0037 5.04793L19.0186 5.05406C20.2123 5.54643 21.2348 6.37915 21.9586 7.44849C22.6816 8.51656 23.0748 9.77352 23.0892 11.0631M19.0037 5.04793L23.0892 11.0631M23.0255 19.1207L23.0892 11.0631M23.0255 19.1207L23.0892 11.0631M13.2253 12.5817C12.8986 12.4988 12.563 12.4554 12.2259 12.4525C11.8539 12.4377 11.4827 12.4985 11.1348 12.6314C10.7841 12.7654 10.4644 12.9699 10.1957 13.2321L10.1637 13.2633L10.1377 13.2997C9.88154 13.659 9.73404 14.0844 9.71281 14.5253C9.69205 14.9562 9.79284 15.3842 10.0034 15.7603C10.2955 16.4229 10.7603 16.9951 11.3494 17.4168C11.9462 17.8439 12.6479 18.1004 13.3793 18.159L13.3993 18.1606H13.4192H13.4999H13.513L13.5261 18.1599L19.8167 17.8299L20.2868 17.8052L20.2905 17.3344L20.3392 11.0082H20.3392V11.0043V10.9631V10.9478L20.3383 10.9326C20.2934 10.1974 20.0407 9.49 19.6095 8.89277C19.1846 8.30416 18.6035 7.84638 17.9323 7.57094C17.5624 7.3702 17.1439 7.27602 16.7232 7.29925C16.2914 7.32309 15.8754 7.46971 15.524 7.72185L15.4753 7.7568L15.4362 7.80227C15.0749 8.22291 14.8332 8.73291 14.7364 9.27895C14.6409 9.81758 14.6899 10.3717 14.8782 10.885C14.9399 11.1116 14.9425 11.3502 14.8857 11.5782C14.8275 11.8119 14.7089 12.0263 14.5418 12.1998C14.3748 12.3733 14.165 12.4998 13.9337 12.5668L14.0727 13.0471L13.9337 12.5668C13.7029 12.6335 13.4587 12.6387 13.2253 12.5817ZM13.2253 12.5817C13.2261 12.5819 13.2268 12.5821 13.2275 12.5823L13.1042 13.0668M13.2253 12.5817C13.2247 12.5816 13.2241 12.5814 13.2235 12.5813L13.1042 13.0668M13.1042 13.0668C12.8131 12.9928 12.514 12.9544 12.2136 12.9525M13.1042 13.0668L12.2136 12.9525M12.2136 12.9525C11.9067 12.9392 11.6003 12.9889 11.3133 13.0985C11.0263 13.2081 10.7648 13.3754 10.5449 13.59C10.3443 13.8712 10.2288 14.2043 10.2122 14.5493C10.1956 14.8944 10.2785 15.2369 10.4511 15.5362L12.2136 12.9525Z" fill="#94866B" stroke="#262626"/>
<path d="M18.1785 61.4583L18.1785 61.4584C18.4907 61.6169 18.7307 61.8885 18.8495 62.2178L19.3199 62.0481L18.8495 62.2178C18.9683 62.5471 18.957 62.9093 18.818 63.2306C18.818 63.2306 18.8179 63.2307 18.8179 63.2307L15.5962 70.6644C15.034 71.7955 14.1633 72.7446 13.0847 73.4021C12.0025 74.0618 10.7553 74.4009 9.48811 74.3801L9.48811 74.38H9.47989H9.4794H9.47892H9.47844H9.47795H9.47747H9.47699H9.4765H9.47602H9.47554H9.47505H9.47457H9.47409H9.4736H9.47312H9.47264H9.47216H9.47167H9.47119H9.47071H9.47023H9.46974H9.46926H9.46878H9.4683H9.46781H9.46733H9.46685H9.46637H9.46588H9.4654H9.46492H9.46444H9.46396H9.46347H9.46299H9.46251H9.46203H9.46155H9.46106H9.46058H9.4601H9.45962H9.45914H9.45866H9.45817H9.45769H9.45721H9.45673H9.45625H9.45577H9.45529H9.4548H9.45432H9.45384H9.45336H9.45288H9.4524H9.45192H9.45144H9.45096H9.45047H9.44999H9.44951H9.44903H9.44855H9.44807H9.44759H9.44711H9.44663H9.44615H9.44567H9.44519H9.44471H9.44423H9.44374H9.44326H9.44278H9.4423H9.44182H9.44134H9.44086H9.44038H9.4399H9.43942H9.43894H9.43846H9.43798H9.4375H9.43702H9.43654H9.43606H9.43558H9.4351H9.43462H9.43414H9.43366H9.43318H9.4327H9.43223H9.43175H9.43127H9.43079H9.43031H9.42983H9.42935H9.42887H9.42839H9.42791H9.42743H9.42695H9.42647H9.42599H9.42551H9.42504H9.42456H9.42408H9.4236H9.42312H9.42264H9.42216H9.42168H9.4212H9.42073H9.42025H9.41977H9.41929H9.41881H9.41833H9.41785H9.41737H9.4169H9.41642H9.41594H9.41546H9.41498H9.4145H9.41403H9.41355H9.41307H9.41259H9.41211H9.41163H9.41116H9.41068H9.4102H9.40972H9.40924H9.40877H9.40829H9.40781H9.40733H9.40685H9.40638H9.4059H9.40542H9.40494H9.40447H9.40399H9.40351H9.40303H9.40256H9.40208H9.4016H9.40112H9.40065H9.40017H9.39969H9.39921H9.39874H9.39826H9.39778H9.3973H9.39683H9.39635H9.39587H9.3954H9.39492H9.39444H9.39396H9.39349H9.39301H9.39253H9.39206H9.39158H9.3911H9.39062H9.39015H9.38967H9.38919H9.38872H9.38824H9.38776H9.38729H9.38681H9.38633H9.38586H9.38538H9.3849H9.38443H9.38395H9.38348H9.383H9.38252H9.38205H9.38157H9.38109H9.38062H9.38014H9.37966H9.37919H9.37871H9.37824H9.37776H9.37728H9.37681H9.37633H9.37585H9.37538H9.3749H9.37443H9.37395H9.37348H9.373H9.37252H9.37205H9.37157H9.3711H9.37062H9.37014H9.36967H9.36919H9.36872H9.36824H9.36777H9.36729H9.36681H9.36634H9.36586H9.36539H9.36491H9.36444H9.36396H9.36349H9.36301H9.36253H9.36206H9.36158H9.36111H9.36063H9.36016H9.35968H9.35921H9.35873H9.35826H9.35778H9.35731H9.35683H9.35636H9.35588H9.35541H9.35493H9.35446H9.35398H9.35351H9.35303H9.35256H9.35208H9.35161H9.35113H9.35066H9.35018H9.34971H9.34923H9.34876H9.34828H9.34781H9.34733H9.34686H9.34638H9.34591H9.34543H9.34496H9.34448H9.34401H9.34354H9.34306H9.34259H9.34211H9.34164H9.34116H9.34069H9.34021H9.33974H9.33927H9.33879H9.33832H9.33784H9.33737H9.33689H9.33642H9.33594H9.33547H9.335H9.33452H9.33405H9.33357H9.3331H9.33263H9.33215H9.33168H9.3312H9.33073H9.33025H9.32978H9.32931H9.32883H9.32836H9.32788H9.32741H9.32694H9.32646H9.32599H9.32551H9.32504H9.32457H9.32409H9.32362H9.32315H9.32267H9.3222H9.32172H9.32125H9.32078H9.3203H9.31983H9.31936H9.31888H9.31841H9.31793H9.31746H9.31699H9.31651H9.31604H9.31557H9.31509H9.31462H9.31415H9.31367H9.3132H9.31272H9.31225H9.31178H9.3113H9.31083H9.31036H9.30988H9.30941H9.30894H9.30846H9.30799H9.30752H9.30704H9.30657H9.3061H9.30562H9.30515H9.30468H9.3042H9.30373H9.30326H9.30278H9.30231H9.30184H9.30136H9.30089H9.30042H9.29994H9.29947H9.299H9.29853H9.29805H9.29758H9.29711H9.29663H9.29616H9.29569H9.29521H9.29474H9.29427H9.29379H9.29332H9.29285H9.29238H9.2919H9.29143H9.29096H9.29048H9.29001H9.28954H9.28906H9.28859H9.28812H9.28765H9.28717H9.2867H9.28623H9.28575H9.28528H9.28481H9.28434H9.28386H9.28339H9.28292H9.28244H9.28197H9.2815H9.28103H9.28055H9.28008H9.27961H9.27913H9.27866H9.27819H9.27772H9.27724H9.27677H9.2763H9.27583H9.27535H9.27488H9.27441H9.27393H9.27346H9.27299H9.27252H9.27204H9.27157H9.2711H9.27063H9.27015H9.26968H9.26921H9.26874H9.26826H9.26779H9.26732H9.26685H9.26637H9.2659H9.26543H9.26496H9.26448H9.26401H9.26354H9.26306H9.26259H9.26212H9.26165H9.26117H9.2607H9.26023H9.25976H9.25928H9.25881H9.25834H9.25787H9.25739H9.25692H9.25645H9.25598H9.2555H9.25503H9.25456H9.25409H9.25361H9.25314H9.25267H9.2522H9.25172H9.25125H9.25078H9.25031H9.24984H9.24936H9.24889H9.24842H9.24794H9.24747H9.247H9.24653H9.24606H9.24558H9.24511H9.24464H9.24417H9.24369H9.24322H9.24275H9.24228H9.2418H9.24133H9.24086H9.24039H9.23991H9.23944H9.23897H9.2385H9.23802H9.23755H9.23708H9.23661H9.23613V74.3799L9.22572 74.3801C8.24459 74.4006 7.2804 74.1224 6.46094 73.5824C5.64475 73.0447 5.0105 72.2725 4.64149 71.3676L4.5808 71.1942C4.18296 70.0179 4.21111 68.7392 4.66039 67.5815L4.81534 67.1823L4.44461 66.9678C3.35033 66.3349 2.51297 65.3381 2.07829 64.1513C1.77681 63.1952 1.77628 62.1695 2.07692 61.2129C2.37859 60.2531 2.96884 59.4096 3.76726 58.7974L3.78009 58.7876L3.79226 58.7769C4.76435 57.9264 5.9654 57.3809 7.24554 57.2086C8.52416 57.0365 9.82513 57.2443 10.9865 57.8061L18.1785 61.4583ZM13.0583 69.5964L13.0731 69.571L13.0848 69.544L15.5936 63.7615L15.7807 63.3302L15.3617 63.1169L9.72847 60.2497L9.69585 60.2325L9.69418 60.2317C9.24493 59.9974 8.74464 59.8781 8.23803 59.8844L8.23803 59.8844L8.23339 59.8845C7.25613 59.9058 6.31498 60.2578 5.56373 60.8832L5.56372 60.8832L5.55994 60.8864C5.38582 61.0343 5.08589 61.3166 4.86407 61.6908C4.64072 62.0676 4.46671 62.5926 4.65907 63.1725L4.6653 63.1912L4.67299 63.2095C4.88863 63.7203 5.23749 64.1639 5.68313 64.4939C6.12285 64.8196 6.64088 65.0228 7.18444 65.0831C7.41537 65.1287 7.63084 65.2328 7.81014 65.3856C7.99384 65.5421 8.1331 65.7442 8.21392 65.9717C8.29474 66.1991 8.31428 66.4438 8.27057 66.6811C8.22798 66.9125 8.12677 67.1289 7.97676 67.3098C7.59661 67.6927 7.32342 68.1688 7.18465 68.6905C7.04387 69.2198 7.04651 69.7771 7.1923 70.305L7.20709 70.3585L7.23327 70.4075C7.44112 70.7965 7.75607 71.1178 8.14084 71.3333C8.51803 71.5445 8.94681 71.6455 9.37827 71.6249C10.1136 71.6517 10.8426 71.4795 11.4883 71.1261C12.1413 70.7687 12.6841 70.2398 13.0583 69.5964Z" fill="#94866B" stroke="#262626"/>
<path d="M21.5277 30.9723C21.2699 30.7144 21.125 30.3647 21.125 30C21.125 29.6353 21.2699 29.2856 21.5277 29.0277C21.7856 28.7699 22.1353 28.625 22.5 28.625H24.375C24.7397 28.625 25.0894 28.7699 25.3473 29.0277C25.6051 29.2856 25.75 29.6353 25.75 30C25.75 30.3647 25.6051 30.7144 25.3473 30.9723C25.0894 31.2301 24.7397 31.375 24.375 31.375H22.5C22.1353 31.375 21.7856 31.2301 21.5277 30.9723Z" fill="#94866B" stroke="#262626"/>
<path d="M33.75 31.375H31.875C31.5103 31.375 31.1606 31.2301 30.9027 30.9723C30.6449 30.7144 30.5 30.3647 30.5 30C30.5 29.6353 30.6449 29.2856 30.9027 29.0277C31.1606 28.7699 31.5103 28.625 31.875 28.625H33.75C34.1147 28.625 34.4644 28.7699 34.7223 29.0277C34.9801 29.2856 35.125 29.6353 35.125 30C35.125 30.3647 34.9801 30.7144 34.7223 30.9723C34.4644 31.2301 34.1147 31.375 33.75 31.375Z" fill="#94866B" stroke="#262626"/>
<path d="M29.0973 27.2223C28.8394 27.4801 28.4897 27.625 28.125 27.625C27.7603 27.625 27.4106 27.4801 27.1527 27.2223C26.8949 26.9644 26.75 26.6147 26.75 26.25V24.375C26.75 24.0103 26.8949 23.6606 27.1527 23.4027C27.4106 23.1449 27.7603 23 28.125 23C28.4897 23 28.8394 23.1449 29.0973 23.4027C29.3551 23.6606 29.5 24.0103 29.5 24.375V26.25C29.5 26.6147 29.3551 26.9644 29.0973 27.2223Z" fill="#94866B" stroke="#262626"/>
<path d="M29.5 33.75V35.625C29.5 35.9897 29.3551 36.3394 29.0973 36.5973C28.8394 36.8551 28.4897 37 28.125 37C27.7603 37 27.4106 36.8551 27.1527 36.5973C26.8949 36.3394 26.75 35.9897 26.75 35.625V33.75C26.75 33.3853 26.8949 33.0356 27.1527 32.7777C27.4106 32.5199 27.7603 32.375 28.125 32.375C28.4897 32.375 28.8394 32.5199 29.0973 32.7777C29.3551 33.0356 29.5 33.3853 29.5 33.75Z" fill="#94866B" stroke="#262626"/>
<path d="M23.4723 57.1527C23.7301 57.4106 23.875 57.7603 23.875 58.125C23.875 58.4897 23.7301 58.8394 23.4723 59.0973C23.2144 59.3551 22.8647 59.5 22.5 59.5H20.625C20.2603 59.5 19.9106 59.3551 19.6527 59.0973C19.3949 58.8394 19.25 58.4897 19.25 58.125C19.25 57.7603 19.3949 57.4106 19.6527 57.1527C19.9106 56.8949 20.2603 56.75 20.625 56.75H22.5C22.8647 56.75 23.2144 56.8949 23.4723 57.1527Z" fill="#94866B" stroke="#262626"/>
<path d="M31.875 59.5H30C29.6353 59.5 29.2856 59.3551 29.0277 59.0973C28.7699 58.8394 28.625 58.4897 28.625 58.125C28.625 57.7603 28.7699 57.4106 29.0277 57.1527C29.2856 56.8949 29.6353 56.75 30 56.75H31.875C32.2397 56.75 32.5894 56.8949 32.8473 57.1527C33.1051 57.4106 33.25 57.7603 33.25 58.125C33.25 58.4897 33.1051 58.8394 32.8473 59.0973C32.5894 59.3551 32.2397 59.5 31.875 59.5Z" fill="#94866B" stroke="#262626"/>
<path d="M27.2223 51.5277C27.4801 51.7856 27.625 52.1353 27.625 52.5V54.375C27.625 54.7397 27.4801 55.0894 27.2223 55.3473C26.9644 55.6051 26.6147 55.75 26.25 55.75C25.8853 55.75 25.5356 55.6051 25.2777 55.3473C25.0199 55.0894 24.875 54.7397 24.875 54.375V52.5C24.875 52.1353 25.0199 51.7856 25.2777 51.5277C25.5356 51.2699 25.8853 51.125 26.25 51.125C26.6147 51.125 26.9644 51.2699 27.2223 51.5277Z" fill="#94866B" stroke="#262626"/>
<path d="M25.2777 60.9027C25.5356 60.6448 25.8853 60.5 26.25 60.5C26.6147 60.5 26.9644 60.6448 27.2223 60.9027C27.4801 61.1606 27.625 61.5103 27.625 61.875V63.75C27.625 64.1147 27.4801 64.4644 27.2223 64.7223C26.9644 64.9801 26.6147 65.125 26.25 65.125C25.8853 65.125 25.5356 64.9801 25.2777 64.7223C25.0199 64.4644 24.875 64.1147 24.875 63.75V61.875C24.875 61.5103 25.0199 61.1606 25.2777 60.9027Z" fill="#94866B" stroke="#262626"/>
<path d="M90 54.875H91.875C92.2397 54.875 92.5894 55.0199 92.8473 55.2777C93.1051 55.5356 93.25 55.8853 93.25 56.25C93.25 56.6147 93.1051 56.9644 92.8473 57.2223C92.5894 57.4801 92.2397 57.625 91.875 57.625H90C89.6353 57.625 89.2856 57.4801 89.0277 57.2223C88.7699 56.9644 88.625 56.6147 88.625 56.25C88.625 55.8853 88.7699 55.5356 89.0277 55.2777C89.2856 55.0199 89.6353 54.875 90 54.875Z" fill="#94866B" stroke="#262626"/>
<path d="M102.222 55.2777C102.48 55.5356 102.625 55.8853 102.625 56.25C102.625 56.6147 102.48 56.9644 102.222 57.2223C101.964 57.4801 101.615 57.625 101.25 57.625H99.375C99.0103 57.625 98.6606 57.4801 98.4027 57.2223C98.1449 56.9644 98 56.6147 98 56.25C98 55.8853 98.1449 55.5356 98.4027 55.2777C98.6606 55.0199 99.0103 54.875 99.375 54.875H101.25C101.615 54.875 101.964 55.0199 102.222 55.2777Z" fill="#94866B" stroke="#262626"/>
<path d="M94.6527 49.6527C94.9106 49.3949 95.2603 49.25 95.625 49.25C95.9897 49.25 96.3394 49.3949 96.5973 49.6527C96.8551 49.9106 97 50.2603 97 50.625V52.5C97 52.8647 96.8551 53.2144 96.5973 53.4723C96.3394 53.7301 95.9897 53.875 95.625 53.875C95.2603 53.875 94.9106 53.7301 94.6527 53.4723C94.3949 53.2144 94.25 52.8647 94.25 52.5V50.625C94.25 50.2603 94.3949 49.9106 94.6527 49.6527Z" fill="#94866B" stroke="#262626"/>
<path d="M94.6527 59.0277C94.9106 58.7699 95.2603 58.625 95.625 58.625C95.9897 58.625 96.3394 58.7699 96.5973 59.0277C96.8551 59.2856 97 59.6353 97 60V61.875C97 62.2397 96.8551 62.5894 96.5973 62.8473C96.3394 63.1051 95.9897 63.25 95.625 63.25C95.2603 63.25 94.9106 63.1051 94.6527 62.8473C94.3949 62.5894 94.25 62.2397 94.25 61.875V60C94.25 59.6353 94.3949 59.2856 94.6527 59.0277Z" fill="#94866B" stroke="#262626"/>
<path d="M86.25 25.75H84.375C84.0103 25.75 83.6606 25.6051 83.4027 25.3473C83.1449 25.0894 83 24.7397 83 24.375C83 24.0103 83.1449 23.6606 83.4027 23.4027C83.6606 23.1449 84.0103 23 84.375 23H86.25C86.6147 23 86.9644 23.1449 87.2223 23.4027C87.4801 23.6606 87.625 24.0103 87.625 24.375C87.625 24.7397 87.4801 25.0894 87.2223 25.3473C86.9644 25.6051 86.6147 25.75 86.25 25.75Z" fill="#94866B" stroke="#262626"/>
<path d="M93.75 23H95.625C95.9897 23 96.3394 23.1449 96.5973 23.4027C96.8551 23.6606 97 24.0103 97 24.375C97 24.7397 96.8551 25.0894 96.5973 25.3473C96.3394 25.6051 95.9897 25.75 95.625 25.75H93.75C93.3853 25.75 93.0356 25.6051 92.7777 25.3473C92.5199 25.0894 92.375 24.7397 92.375 24.375C92.375 24.0103 92.5199 23.6606 92.7777 23.4027C93.0356 23.1449 93.3853 23 93.75 23Z" fill="#94866B" stroke="#262626"/>
<path d="M90.9723 21.5973C90.7144 21.8551 90.3647 22 90 22C89.6353 22 89.2856 21.8551 89.0277 21.5973C88.7699 21.3394 88.625 20.9897 88.625 20.625V18.75C88.625 18.3853 88.7699 18.0356 89.0277 17.7777C89.2856 17.5199 89.6353 17.375 90 17.375C90.3647 17.375 90.7144 17.5199 90.9723 17.7777C91.2301 18.0356 91.375 18.3853 91.375 18.75V20.625C91.375 20.9897 91.2301 21.3394 90.9723 21.5973Z" fill="#94866B" stroke="#262626"/>
<path d="M89.0277 27.1527C89.2856 26.8949 89.6353 26.75 90 26.75C90.3647 26.75 90.7144 26.8949 90.9723 27.1527C91.2301 27.4106 91.375 27.7603 91.375 28.125V30C91.375 30.3647 91.2301 30.7144 90.9723 30.9723C90.7144 31.2301 90.3647 31.375 90 31.375C89.6353 31.375 89.2856 31.2301 89.0277 30.9723C88.7699 30.7144 88.625 30.3647 88.625 30V28.125C88.625 27.7603 88.7699 27.4106 89.0277 27.1527Z" fill="#94866B" stroke="#262626"/>
</g>
<defs>
<clipPath id="clip0_27_133">
<rect width="120" height="120" fill="white"/>
</clipPath>
</defs>
</svg>
