<svg width="120" height="120" viewBox="0 0 120 120" fill="none" xmlns="http://www.w3.org/2000/svg">
<g clip-path="url(#clip0_27_175)">
<path d="M89.871 118.724L89.873 118.725C90.7791 119.228 91.7976 119.494 92.8337 119.497C94.1835 119.491 95.4935 119.043 96.5633 118.22C98.5606 116.679 99.5412 114.16 99.1097 111.675L99.1089 111.67L93.7245 78.8506C93.5243 77.6578 93.9025 76.4398 94.7435 75.5704L94.7459 75.5678L117.558 52.3214C117.558 52.3212 117.558 52.321 117.558 52.3208C119.322 50.5058 119.943 47.8685 119.178 45.4562L119.175 45.4457L119.175 45.4456C118.478 43.0679 116.476 41.3034 114.03 40.9113C114.029 40.9112 114.029 40.9111 114.028 40.911L82.506 36.1219L82.502 36.1213C81.3216 35.9322 80.3119 35.1696 79.8085 34.0847C79.8082 34.084 79.8079 34.0834 79.8077 34.0828L65.712 4.22275L65.7073 4.21295L65.7075 4.2129C64.703 1.95993 62.467 0.508728 59.9994 0.508728C57.5328 0.508728 55.2967 1.95989 54.2923 4.2129L54.2878 4.22282L54.2877 4.22277L40.1923 34.0786C40.1919 34.0794 40.1916 34.0802 40.1912 34.081C39.689 35.1663 38.6795 35.9321 37.4976 36.1213L37.4937 36.1219L5.97177 40.9147C5.97117 40.9148 5.97057 40.9149 5.96997 40.915C3.52386 41.3071 1.52115 43.0717 0.824905 45.4491L0.821777 45.4598L0.821659 45.4598C0.0562872 47.8728 0.678958 50.5109 2.44293 52.3258C2.44323 52.3262 2.44354 52.3265 2.44385 52.3268L25.2537 75.5678L25.2563 75.5704C26.0969 76.4395 26.4753 77.6572 26.2744 78.8499C26.2744 78.8503 26.2743 78.8507 26.2742 78.8511L20.8981 111.67L20.8974 111.674C20.4667 114.16 21.4465 116.679 23.4437 118.22L23.4445 118.221C25.3716 119.714 28.0041 119.913 30.1333 118.725L30.136 118.724L58.3242 103.228C59.3669 102.653 60.632 102.652 61.6747 103.228L89.871 118.724ZM89.871 118.724L61.6755 103.228L89.871 118.724ZM62.9566 100.595L62.9572 100.595L91.1486 116.086C91.1497 116.087 91.1509 116.088 91.152 116.088C92.357 116.773 93.8549 116.66 94.9434 115.804C96.0604 114.957 96.6067 113.553 96.3553 112.173C96.355 112.171 96.3548 112.17 96.3545 112.168L90.9713 79.3671L90.971 79.3655C90.6101 77.21 91.2934 75.01 92.8119 73.4379C92.8123 73.4375 92.8127 73.4371 92.813 73.4367L115.622 50.1916C115.623 50.1916 115.623 50.1915 115.623 50.1914C116.609 49.1938 116.957 47.7295 116.525 46.3951C116.141 45.0568 115.012 44.0651 113.636 43.8567C113.636 43.8567 113.636 43.8567 113.636 43.8567L82.1152 39.0705C82.1144 39.0703 82.1136 39.0702 82.1129 39.0701C80.0045 38.7289 78.2053 37.3595 77.3149 35.419L77.3125 35.4141L63.218 5.55881C63.2172 5.55709 63.2165 5.55538 63.2157 5.55366C62.648 4.28573 61.3883 3.47085 59.9994 3.47085C58.6113 3.47085 57.3517 4.28581 56.784 5.55366L42.6872 35.4141L42.6871 35.4141L42.6849 35.419C41.7944 37.3595 39.9951 38.729 37.8867 39.0701C37.886 39.0702 37.8853 39.0703 37.8845 39.0705L6.36361 43.8512C6.36354 43.8512 6.36347 43.8512 6.36341 43.8512C4.98628 44.0595 3.85834 45.0514 3.47455 46.3895C3.04308 47.7247 3.39103 49.1887 4.37567 50.1873C4.37577 50.1874 4.37587 50.1875 4.37597 50.1876L27.1849 73.4331C27.1855 73.4337 27.186 73.4343 27.1866 73.4348C28.7056 75.007 29.3896 77.2076 29.0286 79.3637L29.0284 79.3652L23.6452 112.166C23.645 112.168 23.6447 112.169 23.6444 112.171C23.393 113.551 23.9391 114.954 25.0559 115.802C26.1438 116.66 27.6438 116.772 28.8475 116.087C28.8489 116.086 28.8502 116.085 28.8516 116.084L57.0425 100.593L57.0428 100.593C57.9486 100.094 58.966 99.832 59.999 99.8319C61.0334 99.8328 62.0509 100.095 62.9566 100.595Z" fill="#94866B" stroke="#262626"/>
<path d="M54.3748 57.626C53.6155 57.626 52.9999 57.0104 52.9999 56.2512C52.9999 52.868 50.2585 50.1266 46.8753 50.1266C43.4931 50.1266 40.7507 52.8679 40.7507 56.2512C40.7507 57.0106 40.1358 57.626 39.3758 57.626C38.6166 57.626 38.001 57.0104 38.001 56.2512C38.001 51.3495 41.9745 47.3768 46.8753 47.3768C51.777 47.3768 55.7497 51.3495 55.7497 56.2512C55.7497 57.0106 55.1348 57.626 54.3748 57.626Z" fill="#94866B" stroke="#262626"/>
<path d="M78.7483 57.626C77.9891 57.626 77.3735 57.0104 77.3735 56.2512C77.3735 52.868 74.6321 50.1266 71.2489 50.1266C67.8666 50.1266 65.1242 52.8679 65.1242 56.2512C65.1242 57.0106 64.5094 57.626 63.7494 57.626C62.9901 57.626 62.3745 57.0104 62.3745 56.2512C62.3745 51.3495 66.348 47.3768 71.2489 47.3768C76.1506 47.3768 80.1232 51.3495 80.1232 56.2512C80.1232 57.0106 79.5083 57.626 78.7483 57.626Z" fill="#94866B" stroke="#262626"/>
<path d="M50.6514 85.7699L49.8994 86.0647L50.4986 86.6063C53.1098 88.9666 56.4612 90.3422 59.9773 90.4984L60.0002 90.4994L60.0231 90.4983C63.6927 90.3252 67.1777 88.8433 69.8489 86.3216L70.4618 85.7431L69.6603 85.4825C66.5406 84.4683 63.287 83.9264 60.0075 83.8743L59.9967 83.8742L59.986 83.8744C56.7881 83.9612 53.6293 84.6026 50.6514 85.7699ZM72.1544 83.4981L72.4861 83.6292L72.718 83.3583C74.7636 80.9687 76.264 78.163 77.1149 75.1352L77.2934 74.4999H76.6335H43.3665H42.7057L42.8853 75.1358C43.7828 78.3135 45.3866 81.2485 47.5759 83.7207L47.8205 83.9969L48.1565 83.8447C51.8848 82.156 55.9127 81.2311 60.0036 81.1246C64.1651 81.1644 68.2841 81.9691 72.1544 83.4981ZM41.2508 71.7502H78.7482C79.5084 71.7502 80.1231 72.3649 80.1231 73.1251C80.1231 76.4003 77.9723 81.4444 74.3229 85.6905C70.683 89.9256 65.6535 93.2486 59.9995 93.2486C54.346 93.2486 49.3165 89.9256 45.6765 85.6905C42.027 81.4444 39.876 76.4003 39.876 73.1251C39.876 72.365 40.4914 71.7502 41.2508 71.7502Z" fill="#94866B" stroke="#262626"/>
</g>
<defs>
<clipPath id="clip0_27_175">
<rect width="120" height="120" fill="white"/>
</clipPath>
</defs>
</svg>
