<svg width="115" height="120" viewBox="0 0 115 120" fill="none" xmlns="http://www.w3.org/2000/svg">
<path d="M35 33.2588V33.6912L35.4279 33.7535C38.4314 34.1912 41.1772 35.6945 43.1641 37.989C45.0414 40.1571 46.1228 42.8949 46.2395 45.7506H43.4868C43.3608 43.3147 42.3375 41.0043 40.6044 39.2712C38.7533 37.4201 36.2435 36.3788 33.6256 36.3756H33.625C33.2603 36.3756 32.9106 36.2308 32.6527 35.9729C32.3949 35.715 32.25 35.3653 32.25 35.0006V13.125V12.625H31.75H24.25H23.75V13.125V35.0006C23.75 35.3653 23.6051 35.715 23.3473 35.9729C23.0894 36.2308 22.7397 36.3756 22.375 36.3756H22.3744C19.7565 36.3788 17.2467 37.4201 15.3956 39.2712C13.5445 41.1224 12.5031 43.6321 12.5 46.25V46.2506V46.9744V47.419L12.9415 47.4709C18.0487 48.0722 22.7503 50.5497 26.1335 54.4225C29.5168 58.2953 31.3403 63.2871 31.2501 68.4287L31.2499 68.4375L31.2501 68.4463C31.3403 73.5879 29.5168 78.5797 26.1335 82.4525C22.7503 86.3253 18.0487 88.8028 12.9415 89.4041L12.5 89.456V89.9006V116.25V116.75H13H33.125V119.5H11.125C10.7603 119.5 10.4106 119.355 10.1527 119.097C9.89487 118.839 9.75 118.49 9.75 118.125V46.2509C9.75385 43.2159 10.8492 40.2834 12.8359 37.989C14.8228 35.6945 17.5686 34.1912 20.5721 33.7535L21 33.6912V33.2588V1.875C21 1.51033 21.1449 1.16059 21.4027 0.902728L21.0511 0.551086L21.4027 0.902728C21.6606 0.644866 22.0103 0.5 22.375 0.5H33.625C33.9897 0.5 34.3394 0.644866 34.5973 0.902728C34.8551 1.16059 35 1.51033 35 1.875V33.2588ZM24.2313 80.4484C27.0705 77.0987 28.5885 72.8274 28.5001 68.4375C28.5885 64.0475 27.0705 59.7763 24.2313 56.4266C21.3897 53.0743 17.4208 50.8764 13.0717 50.2464L12.5 50.1636V50.7412V86.1338V86.7114L13.0717 86.6286C17.4208 85.9986 21.3897 83.8007 24.2313 80.4484ZM23.75 9.375V9.875H24.25H31.75H32.25V9.375V3.75V3.25H31.75H24.25H23.75V3.75V9.375Z" fill="#94866B" stroke="#262626"/>
<path d="M51.875 110.863V111.25L52.2494 111.347C53.7513 111.737 55.0815 112.614 56.0316 113.84C56.9818 115.067 57.4982 116.574 57.5 118.126C57.4999 118.49 57.355 118.84 57.0973 119.097C56.8394 119.355 56.4897 119.5 56.125 119.5H37.375C37.0103 119.5 36.6606 119.355 36.4027 119.097C36.1449 118.839 36.0001 118.49 36 118.125C36.0023 116.574 36.5188 115.068 37.4689 113.841C38.419 112.615 39.749 111.739 41.2506 111.349L41.625 111.252V110.865V93.5625V93.1548L41.2256 93.0727C39.2221 92.661 37.4217 91.571 36.1283 89.9865C34.8348 88.4021 34.1273 86.4201 34.125 84.3747V50.625C34.125 50.2603 34.2699 49.9106 34.5277 49.6527C34.7856 49.3949 35.1353 49.25 35.5 49.25H58C58.3647 49.25 58.7144 49.3949 58.9723 49.6527C59.2301 49.9106 59.375 50.2603 59.375 50.625V84.3745C59.3728 86.4199 58.6652 88.402 57.3717 89.9865C56.0783 91.571 54.2779 92.661 52.2744 93.0727L51.875 93.1548V93.5625V110.863ZM56.625 52.5V52H56.125H37.375H36.875V52.5V70.5825V70.7677L36.9957 70.9082C37.6695 71.6929 38.6041 72.2077 39.6274 72.3578L39.6721 72.3644L39.7172 72.3628C40.5331 72.3348 41.3332 72.1301 42.0624 71.7628C42.7857 71.3985 43.4222 70.8828 43.9285 70.2509C45.3101 68.765 47.1069 67.7293 49.0854 67.2786C51.0679 66.827 53.1404 66.9838 55.0322 67.7286C55.3229 67.8516 55.607 67.9896 55.8834 68.1421L56.625 68.5514V67.7044V52.5ZM37.5753 74.6244L36.875 74.3181V75.0825V84.375C36.875 85.9995 37.5203 87.5574 38.669 88.706C39.8176 89.8547 41.3755 90.5 43 90.5C43.3647 90.5 43.7144 90.6449 43.9723 90.9027C44.2301 91.1606 44.375 91.5103 44.375 91.875V112.5C44.375 112.865 44.2301 113.214 43.9723 113.472C43.7144 113.73 43.3647 113.875 43 113.875H42.9997C42.2541 113.875 41.5217 114.072 40.876 114.445C40.2303 114.818 39.6942 115.354 39.3214 116L38.8884 116.75H39.7544H53.7456H54.6116L54.1786 116C53.8058 115.354 53.2697 114.818 52.624 114.445C51.9783 114.072 51.2459 113.875 50.5003 113.875H50.5C50.1353 113.875 49.7856 113.73 49.5277 113.472C49.2699 113.214 49.125 112.865 49.125 112.5V91.875C49.125 91.5103 49.2699 91.1606 49.5277 90.9027C49.7856 90.6449 50.1353 90.5 50.5 90.5C52.1245 90.5 53.6824 89.8547 54.831 88.706C55.9797 87.5574 56.625 85.9995 56.625 84.375V73.125C56.625 72.6032 56.3302 72.0466 55.8949 71.5686C55.4462 71.076 54.7985 70.6093 53.9764 70.2687L53.9764 70.2686L53.9668 70.2649C52.5705 69.7197 51.0403 69.6173 49.5838 69.9716C48.1273 70.326 46.815 71.1198 45.8252 72.2454L45.8237 72.2471C45.0836 73.0964 44.1809 73.7888 43.1689 74.2834C42.161 74.776 41.065 75.0625 39.9451 75.1262C39.7489 75.1257 39.5529 75.1154 39.3578 75.0952C38.743 75.0309 38.1417 74.8721 37.5753 74.6244Z" fill="#94866B" stroke="#262626"/>
<path d="M20 108.75V109.25H20.5H25.625V112H20.0918C19.3384 111.999 18.616 111.699 18.0833 111.167C17.5506 110.634 17.2509 109.912 17.25 109.158V103.625H20V108.75Z" fill="#94866B" stroke="#262626"/>
<path d="M30.375 109.25H33.125V112H30.375V109.25Z" fill="#94866B" stroke="#262626"/>
<path d="M93.9845 38.8631L93.9767 38.8636L93.9689 38.8644C93.8667 38.8746 93.7587 38.875 93.6252 38.875C92.2817 38.8726 90.9929 38.3427 90.0362 37.3994C89.0794 36.456 88.5314 35.1746 88.5102 33.831C88.4889 32.4875 88.9962 31.1894 89.9227 30.2162C90.8492 29.243 92.1208 28.6726 93.4638 28.6279C94.8067 28.5831 96.1135 29.0676 97.1028 29.9769C98.0921 30.8862 98.6846 32.1477 98.7529 33.4896C98.8212 34.8316 98.3597 36.1467 97.4678 37.1517C96.576 38.1567 95.3251 38.7713 93.9845 38.8631ZM91.8428 32.1905L91.8015 32.2382L91.7942 32.2528C91.6108 32.4765 91.4697 32.732 91.378 33.0068C91.2792 33.3027 91.2398 33.6152 91.2618 33.9264C91.2839 34.2376 91.367 34.5414 91.5065 34.8205C91.6456 35.0987 91.8381 35.347 92.0729 35.551C92.307 35.7581 92.5805 35.9159 92.8768 36.0153C93.1705 36.1137 93.4808 36.1527 93.7896 36.13C94.4152 36.1064 95.0065 35.8367 95.4345 35.3794C95.8652 34.9194 96.0954 34.3071 96.0747 33.6773C96.0539 33.0475 95.7838 32.4517 95.3237 32.0211C94.8658 31.5924 94.257 31.3623 93.6303 31.3807H93.5068H93.4908L93.4748 31.3817C93.1628 31.4017 92.8578 31.4835 92.5777 31.6223C92.2975 31.7612 92.0477 31.9543 91.8428 32.1905Z" fill="#94866B" stroke="#262626"/>
<path d="M102.861 14.8047C104.012 14.0355 105.366 13.625 106.75 13.625C108.607 13.625 110.387 14.3625 111.7 15.6753C113.013 16.988 113.75 18.7685 113.75 20.625C113.75 22.0095 113.339 23.3628 112.57 24.514C111.801 25.6651 110.708 26.5623 109.429 27.0922C108.15 27.622 106.742 27.7606 105.384 27.4905C104.027 27.2204 102.779 26.5537 101.8 25.5747C100.821 24.5958 100.155 23.3485 99.8845 21.9906C99.6144 20.6328 99.753 19.2253 100.283 17.9462C100.813 16.6671 101.71 15.5739 102.861 14.8047ZM104.389 24.1587C105.088 24.6257 105.909 24.875 106.75 24.875C107.877 24.875 108.958 24.4272 109.755 23.6302C110.552 22.8332 111 21.7522 111 20.625C111 19.7844 110.751 18.9627 110.284 18.2638C109.817 17.5649 109.153 17.0202 108.376 16.6985C107.6 16.3768 106.745 16.2927 105.921 16.4567C105.096 16.6206 104.339 17.0254 103.745 17.6198C103.15 18.2142 102.746 18.9714 102.582 19.7959C102.418 20.6203 102.502 21.4748 102.824 22.2514C103.145 23.028 103.69 23.6917 104.389 24.1587Z" fill="#94866B" stroke="#262626"/>
<path d="M60.0264 29.9377L62.678 27.286L65.3297 29.9377L62.678 32.5893L60.0264 29.9377Z" fill="#94866B"/>
<path d="M66.6548 36.5664L69.3064 33.9147L71.9581 36.5664L69.3064 39.218L66.6548 36.5664Z" fill="#94866B"/>
<path d="M60.0254 43.193L62.677 40.5413L65.3287 43.193L62.677 45.8446L60.0254 43.193Z" fill="#94866B"/>
<path d="M0.0339355 22.432L2.68559 19.7804L5.33724 22.432L2.68559 25.0837L0.0339355 22.432Z" fill="#94866B"/>
<path d="M6.66235 29.0607L9.314 26.409L11.9657 29.0607L9.314 31.7123L6.66235 29.0607Z" fill="#94866B"/>
<path d="M0.0310059 35.6873L2.68266 33.0357L5.33431 35.6873L2.68266 38.339L0.0310059 35.6873Z" fill="#94866B"/>
<path d="M108.771 37.4433L111.422 34.7916L114.074 37.4433L111.422 40.0949L108.771 37.4433Z" fill="#94866B"/>
<path d="M105.02 46.9467L107.671 44.2951L110.323 46.9467L107.671 49.5984L105.02 46.9467Z" fill="#94866B"/>
<path d="M53.397 36.5662L56.0486 33.9145L58.7003 36.5662L56.0486 39.2178L53.397 36.5662Z" fill="#94866B"/>
<path d="M96.0506 113.662L96.1855 112.807C96.3016 112.07 96.6096 111.377 97.0785 110.797C97.5473 110.217 98.1606 109.77 98.8566 109.502L98.8567 109.502C99.0253 109.437 99.1795 109.34 99.3104 109.215C99.4413 109.091 99.5464 108.942 99.6197 108.777C99.693 108.612 99.7331 108.434 99.7376 108.253C99.7421 108.073 99.7109 107.893 99.646 107.724C99.646 107.724 99.646 107.724 99.646 107.724L92.221 88.4775L92.2208 88.4768C92.09 88.1364 91.8293 87.8619 91.4961 87.7137L91.4952 87.7133C91.3206 87.6352 91.1313 87.5951 90.9399 87.5956L96.0506 113.662ZM96.0506 113.662L96.859 113.351M96.0506 113.662L96.859 113.351M96.859 113.351L109.917 108.324L110.728 108.012L110.05 107.468C109.469 107.001 108.775 106.695 108.039 106.58C107.302 106.465 106.549 106.544 105.853 106.811L105.852 106.812C105.683 106.877 105.504 106.908 105.323 106.903C105.143 106.899 104.965 106.859 104.8 106.785C104.634 106.712 104.485 106.607 104.361 106.476C104.236 106.345 104.139 106.191 104.074 106.022L104.074 106.022L96.6622 86.7735L96.6621 86.7731C96.5971 86.6047 96.5659 86.425 96.5703 86.2445C96.5747 86.064 96.6146 85.8861 96.6878 85.721C96.761 85.5559 96.8659 85.4068 96.9967 85.2823C97.1274 85.1579 97.2813 85.0604 97.4496 84.9954C98.9654 84.4118 100.187 83.25 100.847 81.7656C101.506 80.2812 101.549 78.5957 100.965 77.0798L100.965 77.0797L96.921 66.5797L96.8978 66.5197L96.8603 66.4675C96.4672 65.9208 95.9385 65.486 95.3262 65.2059C94.7206 64.9289 94.0539 64.8126 93.3905 64.8682C91.9023 64.8761 90.4511 65.334 89.2277 66.182C87.9984 67.0341 87.0573 68.2397 86.5291 69.6391L86.5289 69.639L86.5248 69.6507C86.1197 70.8105 85.4554 71.8626 84.5825 72.7269C83.7131 73.5878 82.6595 74.2399 81.5014 74.6341C80.9714 74.7776 80.4247 74.8504 79.8756 74.8506L96.859 113.351ZM82.5349 84.1804L82.5346 84.1797L79.199 75.5172L78.9373 74.8375H79.6656C79.7254 74.8375 79.7802 74.8428 79.812 74.8458L79.8173 74.8463C79.8543 74.8498 79.8662 74.8506 79.8754 74.8506L82.5349 84.1804ZM82.5349 84.1804C83.1201 85.6932 84.2815 86.9121 85.7643 87.5697C87.2469 88.2271 88.9297 88.2698 90.4437 87.6883M82.5349 84.1804L90.4437 87.6883M90.4437 87.6883C90.602 87.6277 90.7701 87.5963 90.9397 87.5956L90.4437 87.6883ZM110.218 104.375L110.22 104.376C111.062 104.746 111.822 105.28 112.456 105.947C113.09 106.614 113.585 107.4 113.912 108.26L113.913 108.262C113.978 108.431 114.009 108.611 114.004 108.791C114 108.972 113.96 109.15 113.887 109.315C113.813 109.48 113.708 109.629 113.577 109.753C113.446 109.878 113.292 109.975 113.124 110.04L113.123 110.04L95.6289 116.779C95.6287 116.779 95.6284 116.779 95.6281 116.779C95.4695 116.839 95.3012 116.871 95.1314 116.871C94.854 116.871 94.5832 116.787 94.3545 116.63C94.1255 116.472 93.9495 116.249 93.8498 115.99C93.2949 114.541 93.2355 112.95 93.681 111.464C94.1266 109.977 95.052 108.681 96.3127 107.776L96.6267 107.551L96.4879 107.19L90.2722 91.0466L90.1256 90.6659L89.7233 90.7331C87.7055 91.0701 85.6333 90.7004 83.8565 89.6866C82.0797 88.6727 80.7072 87.0767 79.9709 85.1682L67.8416 53.6685L67.8413 53.6678C67.7099 53.3279 67.7188 52.9497 67.866 52.6164C68.0131 52.2832 68.2863 52.0221 68.6257 51.8902C68.626 51.8901 68.6262 51.89 68.6265 51.8899L89.6249 43.8018C89.625 43.8017 89.6251 43.8017 89.6252 43.8016C89.9655 43.6711 90.3438 43.681 90.6769 43.8292C91.01 43.9774 91.2706 44.252 91.4014 44.5924L91.4015 44.5928L99.4884 65.5965L103.531 76.0965L103.531 76.0968C104.267 78.0059 104.321 80.1108 103.684 82.0551C103.046 83.9995 101.756 85.6638 100.032 86.7663L99.6885 86.9863L99.8353 87.3673L106.051 103.5L106.19 103.861L106.575 103.817C107.817 103.673 109.075 103.866 110.218 104.375ZM89.5128 47.3309L89.3332 46.8645L88.8667 47.044L71.3748 53.7733L70.908 53.9529L71.0878 54.4197L77.5865 71.2947L77.6533 71.4682L77.8173 71.5559C78.7263 72.0422 79.7792 72.1873 80.7859 71.9651L80.8311 71.9551L80.8737 71.937C81.6243 71.6181 82.2968 71.1403 82.8451 70.5366C83.389 69.9377 83.7979 69.229 84.044 68.4585C84.8018 66.5768 86.1073 64.9659 87.7914 63.8346C89.4788 62.7012 91.4682 62.1018 93.5008 62.1143C93.8164 62.1247 94.1313 62.1514 94.4441 62.1941L95.2827 62.3088L94.9784 61.519L89.5128 47.3309Z" fill="#94866B" stroke="#262626"/>
</svg>
