<svg width="118" height="57" viewBox="0 0 118 57" fill="none" xmlns="http://www.w3.org/2000/svg">
<path d="M57.7403 24.0034L30.8422 23.9978V37.2954H38.0442C38.0442 37.6208 34.3512 41.2091 28.8103 41.2091C22.7119 41.2091 15.8098 36.3955 15.6711 28.6841C15.5268 20.6925 22.4402 15.4572 28.8103 15.6836C33.9805 15.8703 35.9558 17.3475 38.8423 20.1859C38.8423 20.1859 55.0971 20.1972 56.0678 20.1972C54.5878 14.5176 46.6811 0.238029 28.6009 0.215393C12.0064 0.192753 0.0869304 13.8837 0.132209 28.152C0.185977 44.6871 12.9941 56.7622 29.2235 56.7622C46.7773 56.7622 56.5574 42.3354 57.7827 31.6498C58.2355 28.4379 57.7403 24.0034 57.7403 24.0034Z" fill="white"/>
<path d="M99.6348 32.0601L98.1661 30.1075L80.5104 30.1047L87.653 40.4366C80.1652 41.9053 73.0961 35.6371 73.198 28.3558C73.3027 20.9132 79.3077 15.3638 86.49 15.3893C95.7805 15.4204 102.235 23.9412 99.6348 32.0601ZM110.247 44.8286C110.247 44.8286 115.491 37.9831 115.513 29.0605C115.556 11.5378 103.28 0.158813 86.1589 0.130516C71.3246 0.107876 59.8551 10.9463 57.7638 23.8931H57.761C57.3676 26.5334 57.4242 29.1482 57.7978 31.7602V31.7573C59.5919 44.5088 70.6285 56.5868 86.2579 56.5896C93.0666 56.5896 97.8803 53.6861 98.7519 53.2249L100.492 55.4973L117.868 55.4859L110.247 44.8286Z" fill="white"/>
</svg>
